<?xml version="1.0" standalone="no"?>
<!DOCTYPE svg PUBLIC "-//W3C//DTD SVG 20010904//EN"
 "http://www.w3.org/TR/2001/REC-SVG-20010904/DTD/svg10.dtd">
<svg version="1.0" xmlns="http://www.w3.org/2000/svg"
 width="439.000000pt" height="439.000000pt" viewBox="0 0 439.000000 439.000000"
 preserveAspectRatio="xMidYMid meet">
<metadata>
Created by potrace 1.11, written by Peter Selinger 2001-2013
</metadata>
<g transform="translate(0.000000,439.000000) scale(0.100000,-0.100000)"
fill="#000000" stroke="none">
<path d="M289 4100 c-3 -12 -5 -3076 -2 -3085 2 -7 520 -9 1531 -8 840 1 1536
2 1547 2 20 1 20 7 18 1514 -1 831 -2 1528 -2 1547 l-1 35 -1545 0 c-850 0
-1546 -2 -1546 -5z"/>
<path d="M3500 2489 l0 -1514 400 -400 400 -400 0 1513 0 1514 -400 400 -400
400 0 -1513z"/>
<path d="M400 884 c0 -4 177 -184 394 -400 l394 -394 1514 0 1513 0 -400 400
-400 400 -1507 0 c-830 0 -1508 -3 -1508 -6z"/>
</g>
</svg>
